<svg width="48" height="61" viewBox="0 0 48 61" fill="none" xmlns="http://www.w3.org/2000/svg">
<path d="M4.73044 11.4662L6.6087 19.5807L4.73044 27.6599L11.7217 32.0347L16 39.1261L24 37.2209L32 39.1261L36.2783 32.0347L43.2696 27.6599L41.3913 19.5807L43.2696 11.4662L36.313 7.09138L32 0L24 1.94043L16.0348 0.0352805L11.687 7.09138L4.73044 11.4662ZM24.0348 33.834C20.3448 33.834 16.806 32.3472 14.1968 29.7006C11.5876 27.0541 10.1217 23.4646 10.1217 19.7218C10.1217 15.979 11.5876 12.3895 14.1968 9.74297C16.806 7.09642 20.3448 5.6096 24.0348 5.6096C31.687 5.6096 37.913 11.9248 37.913 19.6865C37.913 27.5188 31.687 33.834 24.0348 33.834ZM23.9652 30.306C18.1913 30.306 13.5652 25.5784 13.5652 19.7218C13.5652 13.9005 18.1913 9.13765 23.9652 9.13765C29.7391 9.13765 34.4348 13.9005 34.4348 19.7218C34.4348 25.5784 29.7391 30.306 23.9652 30.306ZM37.3217 34.1868L32.8696 42.0896L25.6348 40.4315L34.4348 61L39.3043 53.2383H48L37.3217 34.1868ZM10.5391 34.4338L14.887 42.3719L22.2957 40.5726L13.5652 61L8.69565 53.2383H0L10.5391 34.4338Z" fill="black"/>
</svg>
