<svg width="54" height="54" viewBox="0 0 54 54" fill="none" xmlns="http://www.w3.org/2000/svg">
<path d="M20.637 19.5C22.149 17.67 24.438 16.5 27 16.5C29.562 16.5 31.851 17.67 33.363 19.5C34.3585 20.7069 34.9903 22.172 35.1846 23.7244C35.379 25.2768 35.1279 26.8524 34.4608 28.2675C33.7936 29.6826 32.7378 30.8789 31.4165 31.7167C30.0953 32.5545 28.563 32.9993 26.9985 32.9993C25.434 32.9993 23.9018 32.5545 22.5805 31.7167C21.2593 30.8789 20.2035 29.6826 19.5363 28.2675C18.8691 26.8524 18.6181 25.2768 18.8125 23.7244C19.0068 22.172 19.6386 20.7069 20.634 19.5H20.637Z" fill="black"/>
<path d="M38.2499 24.75C38.2499 22.854 37.7819 21.066 36.9539 19.5H49.4999C50.6934 19.5 51.838 19.9741 52.6819 20.818C53.5258 21.6619 53.9999 22.8065 53.9999 24V25.5C53.9999 30.261 50.3819 35.136 44.0549 36.852C43.4047 35.684 42.4542 34.7111 41.3017 34.0338C40.1492 33.3566 38.8366 32.9996 37.4999 33H34.6499C35.787 31.9479 36.6939 30.6717 37.3135 29.2518C37.9331 27.832 38.2519 26.2992 38.2499 24.75Z" fill="black"/>
<path d="M37.5 36C38.0914 35.9984 38.6773 36.1137 39.224 36.3393C39.7706 36.5649 40.2673 36.8963 40.6855 37.3145C41.1037 37.7327 41.4351 38.2294 41.6607 38.7761C41.8863 39.3227 42.0016 39.9086 42 40.5V42C42 47.913 36.42 54 27 54C17.58 54 12 47.913 12 42V40.5C11.9984 39.9086 12.1137 39.3227 12.3393 38.7761C12.5649 38.2294 12.8963 37.7327 13.3145 37.3145C13.7327 36.8963 14.2294 36.5649 14.7761 36.3393C15.3227 36.1137 15.9086 35.9984 16.5 36H37.5Z" fill="black"/>
<path d="M0 25.5C0 30.261 3.618 35.136 9.945 36.852C10.5952 35.684 11.5457 34.7111 12.6982 34.0338C13.8507 33.3566 15.1633 32.9996 16.5 33H19.35C18.2129 31.9479 17.306 30.6717 16.6864 29.2518C16.0668 27.832 15.748 26.2992 15.75 24.75C15.75 22.854 16.218 21.066 17.049 19.5H4.5C3.30653 19.5 2.16193 19.9741 1.31802 20.818C0.474106 21.6619 0 22.8065 0 24V25.5Z" fill="black"/>
<path d="M23.25 8.25C23.25 6.06196 22.3808 3.96354 20.8336 2.41637C19.2865 0.869194 17.188 0 15 0C12.812 0 10.7135 0.869194 9.16637 2.41637C7.61919 3.96354 6.75 6.06196 6.75 8.25C6.75 10.438 7.61919 12.5365 9.16637 14.0836C10.7135 15.6308 12.812 16.5 15 16.5C17.188 16.5 19.2865 15.6308 20.8336 14.0836C22.3808 12.5365 23.25 10.438 23.25 8.25Z" fill="black"/>
<path d="M47.25 8.25C47.25 6.06196 46.3808 3.96354 44.8336 2.41637C43.2865 0.869194 41.188 0 39 0C36.812 0 34.7135 0.869194 33.1664 2.41637C31.6192 3.96354 30.75 6.06196 30.75 8.25C30.75 10.438 31.6192 12.5365 33.1664 14.0836C34.7135 15.6308 36.812 16.5 39 16.5C41.188 16.5 43.2865 15.6308 44.8336 14.0836C46.3808 12.5365 47.25 10.438 47.25 8.25Z" fill="black"/>
</svg>
