<svg width="46" height="46" viewBox="0 0 46 46" fill="none" xmlns="http://www.w3.org/2000/svg">
<path d="M43.7 0H9.2C7.98 0 6.80998 0.484641 5.94731 1.34731C5.08464 2.20998 4.6 3.38 4.6 4.6V11.5H0V16.1H4.6V20.7H0V25.3H4.6V29.9H0V34.5H4.6V41.4C4.6 42.62 5.08464 43.79 5.94731 44.6527C6.80998 45.5154 7.98 46 9.2 46H43.7C44.31 46 44.895 45.7577 45.3263 45.3263C45.7577 44.895 46 44.31 46 43.7V2.3C46 1.69 45.7577 1.10499 45.3263 0.673654C44.895 0.242321 44.31 0 43.7 0ZM25.3 6.8977C29.0904 6.8977 32.2 10.005 32.2 13.7977C32.1933 15.6259 31.4643 17.3773 30.1718 18.6702C28.8793 19.9631 27.1282 20.6927 25.3 20.7C21.5119 20.7 18.4 17.5881 18.4 13.7977C18.4 10.005 21.5119 6.8977 25.3 6.8977ZM39.1 36.8H11.5V35.075C11.5 29.9713 17.7215 24.725 25.3 24.725C32.8785 24.725 39.1 29.9713 39.1 35.075V36.8Z" fill="black"/>
</svg>
