<svg width="92" height="113" viewBox="0 0 92 113" fill="none" xmlns="http://www.w3.org/2000/svg">
<path d="M3.51562 112.5C2.58322 112.5 1.68901 112.13 1.0297 111.47C0.370396 110.811 0 109.917 0 108.984V3.51562C0 2.58322 0.370396 1.68901 1.0297 1.0297C1.68901 0.370395 2.58322 0 3.51562 0C4.44803 0 5.34224 0.370395 6.00155 1.0297C6.66085 1.68901 7.03125 2.58322 7.03125 3.51562V108.984C7.03125 109.917 6.66085 110.811 6.00155 111.47C5.34224 112.13 4.44803 112.5 3.51562 112.5Z" fill="black"/>
<path d="M89.8242 6.39893C89.2898 6.09037 88.6835 5.92792 88.0664 5.92792C87.4493 5.92792 86.843 6.09037 86.3086 6.39893C79.4933 9.26385 72.1487 10.6537 64.7578 10.4771C58.3902 10.0111 52.1888 8.22736 46.5469 5.23877C41.0993 2.35148 35.1158 0.616269 28.9688 0.141114C23.8595 0.083322 18.7906 1.05167 14.0625 2.98877V10.8286C18.6428 8.32249 23.7828 7.01631 29.0039 7.03174C34.1741 7.54467 39.1921 9.07394 43.7695 11.5317C50.3091 14.9466 57.4985 16.9356 64.8633 17.3677C71.475 17.3907 78.0525 16.4189 84.375 14.4849V59.5903C78.079 61.8251 71.4383 62.9319 64.7578 62.8599C58.3902 62.394 52.1888 60.6102 46.5469 57.6216C41.0993 54.7343 35.1158 52.9991 28.9688 52.5239C23.8499 52.5107 18.7807 53.5269 14.0625 55.5122V63.2817C18.6428 60.7756 23.7828 59.4694 29.0039 59.4849C34.1741 59.9978 39.1921 61.5271 43.7695 63.9849C50.3091 67.3997 57.4985 69.3888 64.8633 69.8208C73.3167 69.9964 81.7092 68.3539 89.4727 65.0044C90.0524 64.7122 90.54 64.2653 90.8813 63.713C91.2226 63.1607 91.4043 62.5247 91.4063 61.8755V9.38721C91.415 8.79628 91.2746 8.2127 90.9981 7.69039C90.7216 7.16808 90.3178 6.72391 89.8242 6.39893Z" fill="black"/>
</svg>
