<svg width="68" height="63" viewBox="0 0 68 63" fill="none" xmlns="http://www.w3.org/2000/svg">
<path d="M59.0003 58.5V12.6667H46.5003V0.166656H9.00033V58.5H0.666992V62.6667H29.8337V50.1667H38.167V62.6667H67.3337V58.5H59.0003ZM25.667 41.8333H17.3337V33.5H25.667V41.8333ZM25.667 29.3333H17.3337V21H25.667V29.3333ZM25.667 16.8333H17.3337V8.49999H25.667V16.8333ZM38.167 41.8333H29.8337V33.5H38.167V41.8333ZM38.167 29.3333H29.8337V21H38.167V29.3333ZM38.167 16.8333H29.8337V8.49999H38.167V16.8333ZM54.8337 41.8333H46.5003V33.5H54.8337V41.8333ZM54.8337 29.3333H46.5003V21H54.8337V29.3333Z" fill="white"/>
</svg>
