<svg width="48" height="49" viewBox="0 0 48 49" fill="none" xmlns="http://www.w3.org/2000/svg">
<path d="M45.2275 1.95594C45.2038 1.48223 44.9988 1.03578 44.6551 0.708933C44.3114 0.38209 43.8552 0.199878 43.381 0.199997H38.115C37.6535 0.19997 37.2088 0.372539 36.8681 0.683785C36.5275 0.99503 36.3155 1.42244 36.274 1.882L33.2704 35.7347V22.3008H29.5737V16.7557C29.5723 16.4219 29.4807 16.0946 29.3086 15.8086C29.1364 15.5226 28.8902 15.2884 28.5959 15.1308C28.3015 14.9732 27.9701 14.8981 27.6366 14.9135C27.3031 14.9288 26.98 15.034 26.7014 15.2179L16.0752 22.3008H14.7869V16.7557C14.7854 16.4219 14.6938 16.0946 14.5217 15.8086C14.3496 15.5226 14.1033 15.2884 13.809 15.1308C13.5147 14.9732 13.1832 14.8981 12.8498 14.9135C12.5163 14.9288 12.1931 15.034 11.9145 15.2179L0.824368 22.6113C0.570955 22.78 0.363113 23.0086 0.2193 23.2769C0.0754876 23.5451 0.000157297 23.8448 0 24.1492L0 46.3295C0 46.8197 0.194737 47.2898 0.541371 47.6364C0.888006 47.9831 1.35814 48.1778 1.84836 48.1778H46.2459C47.2681 48.1778 48 47.5272 48 46.5069C48 46.3479 45.2275 1.95594 45.2275 1.95594ZM9.24179 25.9975V31.5426H5.54507V25.9975H9.24179ZM18.4836 25.9975V31.5426H14.7869V25.9975H18.4836ZM27.7254 25.9975V31.5426H24.0287V25.9975H27.7254ZM9.24179 35.2393V40.7844H5.54507V35.2393H9.24179ZM18.4836 35.2393V40.7844H14.7869V35.2393H18.4836ZM27.7254 35.2393V40.7844H24.0287V35.2393H27.7254Z" fill="white"/>
</svg>
